/* XPM */
static char *corona[] = {
/* columns rows colors chars-per-pixel */
"48 48 4 1 ",
"  c #FF9C00",
". c #FFCE00",
"X c yellow",
"o c None",
/* pixels */
"oooooooooooooooooooooooooooooooooooooooooooooooo",
"oooooooooooooooooooooooooooooooooooooooooooooooo",
"ooooooooooooooooooooooo .ooooooooooooooooooooooo",
"ooooooooooooooooooooooo..ooooooooooooooooooooooo",
"ooooooooooooooooooooooo.Xooooooooooooooooooooooo",
"oooooooooooooooooooooo.XX.oooooooooooooooooooooo",
"oooooooooooooooooooooo.XXXoooooooooooooooooooooo",
"ooooooo oooooooooooooo.XXX ooooooooooooo ooooooo",
"oooooooo..ooooooooooo.XXXX.ooooooooooo .oooooooo",
"oooooooo .X ooooooooo.XXXXXooooooooo .X.oooooooo",
"ooooooooo..XX ooooooooXXXXXooooooo .XX.ooooooooo",
"ooooooooo .XXXX.oooooooooooooooo..XXXX.ooooooooo",
"oooooooooo.XXXXXXoooooo  oooooooXXXXX.oooooooooo",
"oooooooooo .XXXXXoo..........ooXXXXXX.oooooooooo",
"ooooooooooo.XXXXo ..XXXXXXXXX..oXXXX.ooooooooooo",
"ooooooooooo..XX....XXXXXXXXXXX..oXXX.ooooooooooo",
"oooooooooooooX....XXXXXXXXXXXXX..oXXoooooooooooo",
"ooooooooooooo...XXXXXXXXXXXXXXXX..oooooooooooooo",
"oooooooooooooo..XXXXXXXXXXXXXXXXX.oooooooooooooo",
"ooooooooooooo..XXXXXXXXXXXXXXXXXX..ooooooooooooo",
"ooooooooooooo..XXXXXXXXXXXXXXXXXXX.ooooooooooooo",
"oooooooo..ooo..XXXXXXXXXXXXXXXXXXX. .o..oooooooo",
"ooooo.....XX .XXXXXXXXXXXXXXXXXXXX...XX....ooooo",
"oo.....XXXXX..XXXXXXXXXXXXXXXXXXXX...XXXXX....oo",
"o ...XXXXXXX..XXXXXXXXXXXXXXXXXXXXX..XXXXXXX.. o",
"oooo .XXXXXX..XXXXXXXXXXXXXXXXXXXX...XXXXX. oooo",
"ooooooo .XXX .XXXXXXXXXXXXXXXXXXXX...XX. ooooooo",
"oooooooooooXo.XXXXXXXXXXXXXXXXXXXX.o..oooooooooo",
"ooooooooooooo..XXXXXXXXXXXXXXXXXXX.ooooooooooooo",
"oooooooooooooo.XXXXXXXXXXXXXXXXXX. ooooooooooooo",
"oooooooooooooo..XXXXXXXXXXXXXXXXX.oooooooooooooo",
"ooooooooooooooo.XXXXXXXXXXXXXXXX.ooooooooooooooo",
"ooooooooooo .Xoo.XXXXXXXXXXXXXX.ooX..ooooooooooo",
"ooooooooooo..XXoo.XXXXXXXXXXXX.oo.XX.ooooooooooo",
"oooooooooo .XXXXooo.XXXXXXXXXooo.XXX..oooooooooo",
"oooooooooo..XXXXXoooo  XX. oooo.XXXXX.oooooooooo",
"ooooooooo ..XXXXXooooooooooooooXXXXXX..ooooooooo",
"ooooooooo..XXXXooooooooooooooooooXXXX..ooooooooo",
"oooooooo ..XXoooooooo.XXXXXooooooooXXX..oooooooo",
"oooooooo. X.ooooooooo.XXXXXooooooooooX..oooooooo",
"ooooooo ooooooooooooooXXXX.ooooooooooooo ooooooo",
"oooooooooooooooooooooo.XXXoooooooooooooooooooooo",
"oooooooooooooooooooooo.XXXoooooooooooooooooooooo",
"oooooooooooooooooooooooXX oooooooooooooooooooooo",
"ooooooooooooooooooooooo.Xooooooooooooooooooooooo",
"ooooooooooooooooooooooo Xooooooooooooooooooooooo",
"oooooooooooooooooooooooooooooooooooooooooooooooo",
"oooooooooooooooooooooooooooooooooooooooooooooooo"
};
